<?xml version="1.0" encoding="UTF-8"?> <svg xmlns="http://www.w3.org/2000/svg" width="500" height="500" version="1.1" viewBox="0 0 500 500"><g id="Icons" fill="none" fill-rule="evenodd" stroke="none" stroke-width="1"><g id="Frontend" transform="translate(-5000 -999)"><g id="PopulationHealth_Black" stroke="#00366C" stroke-linecap="round" stroke-linejoin="round" stroke-width="6.203" transform="translate(5072 1078)"><polyline id="Path" points="0 210.581 93.043 210.581 117.971 179.59 148.986 229.118 186.087 142.517 217.101 260.109 242.029 210.581 360 210.581"></polyline><path id="Path" d="M180 92.6994036C174.782609 58.8119665 157.681159 24.345257 125.797101 8.12562896 100.32739-5.22861937 69.3114846-1.91208017 47.2463768 16.5250792-.289855072 57.0741492 8.98550725 125.717932 29.8550725 176.693906M180 92.6994036C185.217391 58.8119665 202.318841 24.345257 234.202899 8.12562896 259.67261-5.22861937 290.688515-1.91208017 312.753623 16.5250792 360.289855 57.0741492 351.014493 125.717932 330.144928 176.693906M66.3768116 239.255328C114.492754 303.844204 180 347 180 347 180 347 238.84058 301.527114 286.086957 239.255328"></path></g></g></g></svg> 